<?xml version="1.0" encoding="utf-8"?>
<!-- Generator: Adobe Illustrator 24.1.2, SVG Export Plug-In . SVG Version: 6.00 Build 0)  -->
<svg version="1.1" xmlns="http://www.w3.org/2000/svg" xmlns:xlink="http://www.w3.org/1999/xlink" x="0px" y="0px"
	 viewBox="0 0 1000 800" style="enable-background:new 0 0 1000 800;" xml:space="preserve">
<style type="text/css">
	.st0{display:none;}
	.st1{display:inline;fill:url(#SVGID_1_);}
	.st2{display:inline;fill:#394A54;}
	.st3{fill:#020202;}
</style>
<g id="Ñëîé_2" class="st0">
	<radialGradient id="SVGID_1_" cx="500" cy="400" r="869.0453" gradientUnits="userSpaceOnUse">
		<stop  offset="0" style="stop-color:#FFFFFF"/>
		<stop  offset="0.3921" style="stop-color:#FDFDFD"/>
		<stop  offset="0.5333" style="stop-color:#F6F7F8"/>
		<stop  offset="0.634" style="stop-color:#EBECED"/>
		<stop  offset="0.7155" style="stop-color:#DADDDF"/>
		<stop  offset="0.7852" style="stop-color:#C4C9CC"/>
		<stop  offset="0.847" style="stop-color:#A8B0B4"/>
		<stop  offset="0.9028" style="stop-color:#889298"/>
		<stop  offset="0.9525" style="stop-color:#647179"/>
		<stop  offset="0.9983" style="stop-color:#3B4C55"/>
		<stop  offset="1" style="stop-color:#394A54"/>
	</radialGradient>
	<rect class="st1" width="1000" height="800"/>
</g>
<g id="Ñëîé_1">
	<g class="st0">
		<path class="st2" d="M537.18,335.18h-80.92c-3.13,0-5.67,2.54-5.67,5.67v115.12c0,3.13,2.54,5.67,5.67,5.67h80.92
			c3.13,0,5.67-2.54,5.67-5.67V340.85C542.86,337.72,540.32,335.18,537.18,335.18z M493.51,455.05h-34.41v-34.41h34.41V455.05z
			 M493.51,412.9h-34.41v-34.41h34.41V412.9z M534.35,455.05h-34.41v-34.41h34.41V455.05z M534.35,412.9h-34.41v-34.41h34.41V412.9z
			 M534.35,364.3h-75.25v-19.35h75.25V364.3z"/>
		<rect x="473.38" y="397.76" class="st2" width="5.95" height="10"/>
		<rect x="473.38" y="381.8" class="st2" width="5.95" height="10"/>
		<rect x="479.33" y="391.8" class="st2" width="10" height="5.96"/>
		<rect x="463.38" y="391.8" class="st2" width="10" height="5.96"/>
		<rect x="473.38" y="391.8" class="st2" width="5.95" height="5.96"/>
		<rect x="504.5" y="391.8" class="st2" width="25.95" height="5.96"/>
		<rect x="504.5" y="430.18" class="st2" width="25.95" height="5.96"/>
		
			<rect x="465.72" y="441.19" transform="matrix(0.7071 -0.7071 0.7071 0.7071 -176.2002 462.9626)" class="st2" width="10" height="5.96"/>
		
			<rect x="477" y="429.9" transform="matrix(0.7071 -0.7071 0.7071 0.7071 -164.922 467.5736)" class="st2" width="10" height="5.96"/>
		
			<rect x="479.02" y="439.16" transform="matrix(0.707 -0.7072 0.7072 0.707 -172.8925 471.025)" class="st2" width="5.96" height="10"/>
		
			<rect x="467.74" y="427.88" transform="matrix(0.7071 -0.7071 0.7071 0.7071 -168.2224 459.6734)" class="st2" width="5.96" height="10"/>
		
			<rect x="473.38" y="435.54" transform="matrix(0.7071 -0.7071 0.7071 0.7071 -170.5588 465.3143)" class="st2" width="5.96" height="5.96"/>
		<rect x="504.5" y="441.5" class="st2" width="25.95" height="5.96"/>
	</g>
	<g class="st0">
		<path class="st2" d="M528.14,336.34H465.3c-5.9,0-10.73,4.83-10.73,10.73v102.68c0,5.9,4.83,10.73,10.73,10.73h62.83
			c5.9,0,10.73-4.83,10.73-10.73V347.07C538.86,341.17,534.04,336.34,528.14,336.34z M458.98,369.36h6.64v5.94h-6.64V369.36z
			 M474.27,451.94h-12.74V439.2h12.74V451.94z M474.27,432.9h-12.74v-12.74h12.74V432.9z M474.27,413.85h-12.74v-12.74h12.74V413.85
			z M474.27,394.81h-12.74v-12.74h12.74V394.81z M474.27,375.3h-6.35v-5.94h6.35V375.3z M493.88,451.94h-12.74V439.2h12.74V451.94z
			 M476.57,375.3v-5.94h6.35v5.94H476.57z M493.88,432.9h-12.74v-12.74h12.74V432.9z M493.88,413.85h-12.74v-12.74h12.74V413.85z
			 M493.88,394.81h-12.74v-12.74h12.74V394.81z M485.22,375.3v-5.94h6.35v5.94H485.22z M500.04,375.3h-6.16v-5.94h6.16V375.3z
			 M513.48,451.94h-12.74V439.2h12.74V451.94z M513.48,432.9h-12.74v-12.74h12.74V432.9z M513.48,413.85h-12.74v-12.74h12.74V413.85
			z M513.48,394.81h-12.74v-12.74h12.74V394.81z M533.08,451.94h-12.74v-31.78h12.74V451.94z M533.08,413.85h-12.74v-12.74h12.74
			V413.85z M533.08,394.81h-12.74v-12.74h12.74V394.81z M534.07,365.47h-75.09v-16.35h75.09V365.47z"/>
		<path class="st2" d="M511.38,356.52v-5.22c-0.12-0.5-0.44-0.81-0.93-0.93l-0.56,1.49v3.91l1.12,1.12L511.38,356.52z"/>
		<path class="st2" d="M511.38,362.86v-5.21l-0.37-0.37l-1.12,1.12v3.91l0.56,1.49C510.94,363.66,511.25,363.35,511.38,362.86z"/>
		<path class="st2" d="M519.2,355.78l1.12,1.12l0.37-0.37v-5.22c-0.12-0.5-0.43-0.81-0.93-0.93l-0.56,1.49V355.78z"/>
		<path class="st2" d="M518.83,351.87l0.56-1.49h-5.57c-0.5,0.12-0.81,0.44-0.93,0.93l1.49,0.56H518.83z"/>
		<polygon class="st2" points="514.36,356.34 513.61,357.08 514.36,357.83 519.2,357.83 519.95,357.08 519.2,356.34 		"/>
		<polygon class="st2" points="514.36,358.39 513.24,357.27 512.87,357.64 512.87,362.48 514.36,361.93 		"/>
		<path class="st2" d="M513.8,363.79h6.15l-0.56-1.49h-5.03l-1.49,0.56C512.99,363.35,513.3,363.66,513.8,363.79z"/>
		<polygon class="st2" points="529.26,357.08 528.51,356.34 523.67,356.34 522.93,357.08 523.67,357.83 528.51,357.83 		"/>
		<path class="st2" d="M528.51,358.39v3.91l0.56,1.49c0.5-0.12,0.81-0.43,0.93-0.93v-5.21l-0.37-0.37L528.51,358.39z"/>
		<path class="st2" d="M523.11,363.79h5.59l-0.56-1.49h-4.47l-1.49,0.56C522.31,363.35,522.62,363.66,523.11,363.79z"/>
		<path class="st2" d="M528.14,351.87l0.56-1.49h-5.57c-0.5,0.12-0.81,0.44-0.93,0.93l1.49,0.56H528.14z"/>
		<path class="st2" d="M528.51,355.78l1.12,1.12l0.37-0.37v-5.22c-0.13-0.5-0.44-0.81-0.93-0.93l-0.56,1.49V355.78z"/>
	</g>
	<g>
		<path class="st3" d="M537.26,333.91h-81.08c-4.64,0-8.43,3.79-8.43,8.43v112.13c0,4.64,3.79,8.43,8.43,8.43h81.08
			c4.64,0,8.43-3.79,8.43-8.43V342.34C545.69,337.7,541.9,333.91,537.26,333.91z M470.98,445.95c0,1.69-1.38,3.07-3.06,3.07h-8.24
			c-1.69,0-3.07-1.38-3.07-3.07v-8.24c0-1.69,1.38-3.07,3.07-3.07h8.24c1.69,0,3.06,1.38,3.06,3.07V445.95z M470.98,425.55
			c0,1.69-1.38,3.07-3.06,3.07h-8.24c-1.69,0-3.07-1.38-3.07-3.07v-8.24c0-1.69,1.38-3.06,3.07-3.06h8.24
			c1.69,0,3.06,1.38,3.06,3.06V425.55z M470.98,405.15c0,1.69-1.38,3.06-3.06,3.06h-8.24c-1.69,0-3.07-1.38-3.07-3.06v-8.24
			c0-1.69,1.38-3.06,3.07-3.06h8.24c1.69,0,3.06,1.38,3.06,3.06V405.15z M470.98,384.75c0,1.69-1.38,3.07-3.06,3.07h-8.24
			c-1.69,0-3.07-1.38-3.07-3.07v-8.24c0-1.69,1.38-3.07,3.07-3.07h8.24c1.69,0,3.06,1.38,3.06,3.07V384.75z M492.45,445.95
			c0,1.69-1.38,3.07-3.07,3.07h-8.23c-1.69,0-3.07-1.38-3.07-3.07v-8.24c0-1.69,1.38-3.07,3.07-3.07h8.23
			c1.69,0,3.07,1.38,3.07,3.07V445.95z M492.45,425.55c0,1.69-1.38,3.07-3.07,3.07h-8.23c-1.69,0-3.07-1.38-3.07-3.07v-8.24
			c0-1.69,1.38-3.06,3.07-3.06h8.23c1.69,0,3.07,1.38,3.07,3.06V425.55z M492.45,405.15c0,1.69-1.38,3.06-3.07,3.06h-8.23
			c-1.69,0-3.07-1.38-3.07-3.06v-8.24c0-1.69,1.38-3.06,3.07-3.06h8.23c1.69,0,3.07,1.38,3.07,3.06V405.15z M492.45,384.75
			c0,1.69-1.38,3.07-3.07,3.07h-8.23c-1.69,0-3.07-1.38-3.07-3.07v-8.24c0-1.69,1.38-3.07,3.07-3.07h8.23
			c1.69,0,3.07,1.38,3.07,3.07V384.75z M513.91,445.95c0,1.69-1.38,3.07-3.06,3.07h-8.24c-1.69,0-3.07-1.38-3.07-3.07v-8.24
			c0-1.69,1.38-3.07,3.07-3.07h8.24c1.69,0,3.06,1.38,3.06,3.07V445.95z M513.91,425.55c0,1.69-1.38,3.07-3.06,3.07h-8.24
			c-1.69,0-3.07-1.38-3.07-3.07v-8.24c0-1.69,1.38-3.06,3.07-3.06h8.24c1.69,0,3.06,1.38,3.06,3.06V425.55z M513.91,405.15
			c0,1.69-1.38,3.06-3.06,3.06h-8.24c-1.69,0-3.07-1.38-3.07-3.06v-8.24c0-1.69,1.38-3.06,3.07-3.06h8.24
			c1.69,0,3.06,1.38,3.06,3.06V405.15z M513.91,384.75c0,1.69-1.38,3.07-3.06,3.07h-8.24c-1.69,0-3.07-1.38-3.07-3.07v-8.24
			c0-1.69,1.38-3.07,3.07-3.07h8.24c1.69,0,3.06,1.38,3.06,3.07V384.75z M535.37,445.95c0,1.69-1.38,3.07-3.06,3.07h-8.24
			c-1.69,0-3.06-1.38-3.06-3.07v-8.24c0-1.69,1.38-3.07,3.06-3.07h8.24c1.68,0,3.06,1.38,3.06,3.07V445.95z M535.37,425.55
			c0,1.69-1.38,3.07-3.06,3.07h-8.24c-1.69,0-3.06-1.38-3.06-3.07v-8.24c0-1.69,1.38-3.06,3.06-3.06h8.24
			c1.68,0,3.06,1.38,3.06,3.06V425.55z M535.37,405.15c0,1.69-1.38,3.06-3.06,3.06h-8.24c-1.69,0-3.06-1.38-3.06-3.06v-8.24
			c0-1.69,1.38-3.06,3.06-3.06h8.24c1.68,0,3.06,1.38,3.06,3.06V405.15z M535.37,384.75c0,1.69-1.38,3.07-3.06,3.07h-8.24
			c-1.69,0-3.06-1.38-3.06-3.07v-8.24c0-1.69,1.38-3.07,3.06-3.07h8.24c1.68,0,3.06,1.38,3.06,3.07V384.75z M539.3,361.36h-84.29
			v-19.52h84.29V361.36z"/>
		<path class="st3" d="M465.78,436.86c-0.54-0.37-1.19-0.55-1.94-0.55c-1.16,0-2.06,0.47-2.71,1.4c-0.58,0.85-0.88,2.22-0.88,4.11
			c0,1.35,0.15,2.4,0.45,3.13c0.3,0.73,0.71,1.28,1.24,1.64c0.53,0.36,1.18,0.54,1.96,0.54c0.78,0,1.42-0.18,1.93-0.54
			c0.51-0.36,0.91-0.92,1.21-1.68c0.3-0.76,0.45-1.83,0.45-3.2c0-1.35-0.15-2.41-0.44-3.17
			C466.75,437.79,466.33,437.22,465.78,436.86z M465.02,444.6c-0.28,0.47-0.66,0.71-1.13,0.71c-0.49,0-0.9-0.25-1.21-0.75
			c-0.31-0.5-0.46-1.4-0.46-2.7c0-1,0.07-1.76,0.2-2.28c0.13-0.52,0.33-0.88,0.59-1.1c0.26-0.21,0.55-0.32,0.88-0.32
			c0.48,0,0.88,0.26,1.18,0.77c0.31,0.51,0.46,1.45,0.46,2.8C465.53,443.08,465.36,444.03,465.02,444.6z"/>
		<polygon class="st3" points="461.08,418.1 463.2,418.1 463.2,426.56 465.15,426.56 465.15,416.26 462.21,416.26 		"/>
		<path class="st3" d="M486.24,423.53c0.93-0.96,1.56-1.8,1.91-2.5c0.35-0.71,0.52-1.36,0.52-1.98c0-0.51-0.14-1.02-0.43-1.52
			c-0.29-0.5-0.67-0.88-1.15-1.14c-0.48-0.26-1.03-0.4-1.66-0.4c-1.01,0-1.84,0.32-2.49,0.96c-0.65,0.64-1,1.51-1.05,2.62h1.91
			c0.02-0.54,0.17-0.96,0.45-1.28c0.28-0.31,0.63-0.47,1.05-0.47c0.42,0,0.76,0.13,1.02,0.39c0.26,0.26,0.39,0.59,0.39,0.98
			c0,0.38-0.13,0.81-0.38,1.29c-0.26,0.47-0.77,1.1-1.54,1.88l-3.19,3.25v0.94h7.14v-1.82h-3.67L486.24,423.53z"/>
		<path class="st3" d="M508.56,420.89c0.48-0.23,0.84-0.54,1.09-0.92c0.25-0.38,0.38-0.8,0.38-1.25c0-0.74-0.29-1.38-0.86-1.91
			c-0.57-0.54-1.28-0.81-2.13-0.81c-0.95,0-1.74,0.32-2.36,0.97c-0.45,0.46-0.72,1.07-0.82,1.84h1.88c0.08-0.27,0.24-0.49,0.47-0.66
			c0.23-0.17,0.48-0.26,0.76-0.26c0.32,0,0.57,0.09,0.77,0.28c0.2,0.18,0.29,0.42,0.29,0.7c0,0.21-0.06,0.42-0.19,0.61
			c-0.13,0.19-0.31,0.34-0.54,0.45c-0.23,0.11-0.58,0.18-1.06,0.22v1.68c0.77,0.01,1.36,0.18,1.76,0.5
			c0.41,0.32,0.61,0.72,0.61,1.18c0,0.42-0.15,0.78-0.45,1.08c-0.3,0.29-0.68,0.44-1.14,0.44c-0.44,0-0.8-0.13-1.09-0.39
			c-0.29-0.26-0.47-0.65-0.56-1.19h-1.94c0.06,1.04,0.41,1.86,1.04,2.47c0.63,0.61,1.45,0.91,2.45,0.91c1.06,0,1.93-0.32,2.61-0.96
			c0.68-0.64,1.02-1.43,1.02-2.35c0-0.63-0.18-1.18-0.53-1.64C509.68,421.4,509.19,421.07,508.56,420.89z"/>
		<path class="st3" d="M466.56,395.31h-1.96l-4.46,6.64v1.82h4.5v2.12h1.92v-2.12h0.92v-1.82h-0.92V395.31z M464.64,401.94h-2.36
			l2.36-3.45V401.94z"/>
		<path class="st3" d="M485.41,399.15c-0.1,0-0.21,0.01-0.32,0.02c-0.11,0.02-0.23,0.04-0.34,0.07l0.42-1.87h3.36v-1.82h-4.83
			l-1.25,5.73l1.6,0.36c0.2-0.21,0.41-0.38,0.62-0.48c0.21-0.11,0.42-0.16,0.63-0.16c0.4,0,0.74,0.15,1.03,0.46
			c0.28,0.31,0.42,0.7,0.42,1.17c0,0.49-0.15,0.89-0.45,1.21c-0.3,0.31-0.67,0.47-1.11,0.47c-0.31,0-0.6-0.08-0.86-0.25
			c-0.26-0.17-0.47-0.41-0.63-0.73h-2.06c0.2,0.87,0.61,1.55,1.24,2.05c0.63,0.5,1.38,0.75,2.26,0.75c0.98,0,1.81-0.34,2.5-1.03
			c0.69-0.69,1.03-1.54,1.03-2.54c0-1-0.31-1.81-0.93-2.45C487.12,399.47,486.35,399.15,485.41,399.15z"/>
		<path class="st3" d="M507.05,399.65l1.8-3.5l-1.67-0.84l-2.65,5.19c-0.35,0.67-0.56,1.16-0.66,1.49c-0.1,0.32-0.14,0.64-0.14,0.96
			c0,0.84,0.31,1.58,0.93,2.23c0.62,0.65,1.39,0.97,2.32,0.97c0.89,0,1.65-0.31,2.27-0.94c0.63-0.62,0.94-1.38,0.94-2.28
			c0-0.93-0.31-1.71-0.92-2.33C508.66,399.96,507.92,399.65,507.05,399.65z M507.88,403.9c-0.26,0.27-0.58,0.4-0.94,0.4
			c-0.35,0-0.65-0.14-0.91-0.41c-0.26-0.27-0.39-0.61-0.39-1c0-0.4,0.12-0.73,0.37-0.99c0.25-0.26,0.55-0.4,0.92-0.4
			c0.38,0,0.7,0.13,0.96,0.4c0.25,0.26,0.38,0.59,0.38,0.99C508.27,403.3,508.14,403.63,507.88,403.9z"/>
		<polygon class="st3" points="460.71,377.36 465.04,377.36 461.17,385.28 462.82,386.08 467.48,376.55 467.48,375.52 
			460.71,375.52 		"/>
		<path class="st3" d="M487.95,380.24c0.37-0.39,0.62-0.75,0.75-1.06c0.14-0.32,0.21-0.66,0.21-1.03c0-0.52-0.13-1.01-0.4-1.47
			c-0.27-0.45-0.63-0.81-1.08-1.05c-0.46-0.25-0.99-0.37-1.59-0.37c-0.61,0-1.15,0.12-1.62,0.37c-0.47,0.24-0.83,0.59-1.09,1.03
			c-0.26,0.44-0.39,0.93-0.39,1.47c0,0.39,0.08,0.76,0.24,1.12c0.16,0.35,0.39,0.68,0.7,1c-0.47,0.35-0.83,0.75-1.06,1.2
			c-0.24,0.45-0.35,0.94-0.35,1.48c0,0.63,0.15,1.19,0.44,1.69c0.29,0.5,0.69,0.87,1.18,1.12s1.15,0.37,1.98,0.37
			c0.78,0,1.41-0.13,1.91-0.38c0.5-0.25,0.9-0.64,1.2-1.14c0.3-0.5,0.45-1.05,0.45-1.65c0-0.55-0.13-1.06-0.38-1.53
			C488.78,380.92,488.42,380.53,487.95,380.24z M484.98,377.47c0.21-0.21,0.47-0.32,0.8-0.32c0.35,0,0.63,0.1,0.85,0.31
			c0.22,0.21,0.32,0.48,0.32,0.81c0,0.35-0.11,0.63-0.32,0.85c-0.21,0.22-0.49,0.33-0.82,0.33c-0.32,0-0.59-0.11-0.81-0.34
			c-0.22-0.22-0.33-0.5-0.33-0.83C484.67,377.95,484.77,377.68,484.98,377.47z M487.03,383.82c-0.3,0.27-0.7,0.4-1.2,0.4
			c-0.49,0-0.89-0.14-1.2-0.43c-0.3-0.29-0.46-0.64-0.46-1.06c0-0.4,0.16-0.74,0.48-1.03c0.32-0.29,0.72-0.43,1.19-0.43
			c0.46,0,0.85,0.14,1.16,0.43c0.31,0.29,0.46,0.64,0.46,1.07C487.47,383.21,487.32,383.55,487.03,383.82z"/>
		<path class="st3" d="M507.09,375.26c-0.89,0-1.64,0.31-2.27,0.93c-0.63,0.62-0.94,1.38-0.94,2.29c0,0.93,0.3,1.71,0.92,2.33
			c0.62,0.63,1.36,0.94,2.23,0.94l-1.81,3.51l1.67,0.83l2.65-5.19c0.34-0.67,0.57-1.16,0.66-1.48c0.1-0.32,0.15-0.64,0.15-0.96
			c0-0.84-0.31-1.58-0.93-2.23C508.8,375.58,508.03,375.26,507.09,375.26z M508.05,379.49c-0.25,0.27-0.55,0.4-0.92,0.4
			c-0.38,0-0.7-0.13-0.96-0.4c-0.25-0.27-0.38-0.6-0.38-0.99c0-0.4,0.13-0.74,0.39-1c0.26-0.27,0.57-0.4,0.94-0.4
			c0.34,0,0.65,0.14,0.91,0.41c0.26,0.27,0.39,0.61,0.39,1.01C508.43,378.9,508.3,379.23,508.05,379.49z"/>
		<rect x="524.78" y="379.8" class="st3" width="6.98" height="1.75"/>
		<rect x="527.15" y="376.54" class="st3" width="2.25" height="2.25"/>
		<rect x="527.15" y="382.56" class="st3" width="2.25" height="2.25"/>
		<polygon class="st3" points="529.52,417.27 527.77,417.27 527.77,419.9 525.15,419.9 525.15,421.65 527.77,421.65 527.77,424.27 
			529.52,424.27 529.52,421.65 532.14,421.65 532.14,419.9 529.52,419.9 		"/>
		<rect x="526.98" y="441.16" class="st3" width="3.56" height="1.78"/>
		<polygon class="st3" points="531.58,397.3 529.74,397.3 528.48,399.05 527.21,397.3 525.35,397.3 527.55,400.34 525.12,403.71 
			526.95,403.71 528.47,401.61 530,403.71 531.87,403.71 529.4,400.32 		"/>
		<path class="st3" d="M485.62,440.53c-0.3,0-0.56,0.11-0.78,0.32c-0.21,0.21-0.32,0.47-0.32,0.77c0,0.3,0.11,0.56,0.32,0.78
			c0.21,0.21,0.47,0.32,0.78,0.32c0.3,0,0.56-0.11,0.78-0.32c0.21-0.22,0.32-0.47,0.32-0.78c0-0.3-0.11-0.56-0.32-0.77
			C486.18,440.64,485.92,440.53,485.62,440.53z"/>
		<rect x="503.31" y="442.34" class="st3" width="7" height="1.75"/>
		<rect x="503.31" y="439.34" class="st3" width="7" height="1.75"/>
	</g>
	<g class="st0">
		<path class="st2" d="M441.55,356.26v36.7h49.73v-49.73h-36.7C447.41,343.24,441.55,349.1,441.55,356.26z M469.48,357.33v8.81h8.81
			v6.13h-8.81v8.81h-6.13v-8.81h-8.81v-6.13h8.81v-8.81H469.48z"/>
		<path class="st2" d="M538.86,343.24h-36.7v49.73h49.73v-36.7C551.89,349.1,546.03,343.24,538.86,343.24z M540.74,372.27h-23.75
			v-6.13h23.75V372.27z"/>
		<path class="st2" d="M441.55,440.55c0,7.16,5.86,13.03,13.03,13.03h36.7v-49.73h-49.73V440.55z M455.85,419.68l4.34-4.34
			l6.23,6.23l6.23-6.23l4.34,4.34l-6.23,6.23l6.23,6.23l-4.34,4.34l-6.23-6.23l-6.23,6.23l-4.34-4.34l6.23-6.23L455.85,419.68z"/>
		<path class="st2" d="M502.16,453.58h36.7c7.16,0,13.03-5.86,13.03-13.03v-36.7h-49.73V453.58z M516.99,417.48h23.75v6.13h-23.75
			V417.48z M516.99,428.71h23.75v6.13h-23.75V428.71z"/>
	</g>
	<g class="st0">
		<path class="st2" d="M561.09,332.86H432.36c-1.69,0-3.06,1.38-3.06,3.07v26.56c0,1.69,1.38,3.06,3.06,3.06h128.73
			c1.69,0,3.06-1.38,3.06-3.06v-26.56C564.15,334.24,562.77,332.86,561.09,332.86z M551.73,358.83H439.48v-18.37h112.25V358.83z"/>
		<path class="st2" d="M561.09,370.35H432.36c-1.69,0-3.06,1.38-3.06,3.06v87.48c0,1.69,1.38,3.07,3.06,3.07h128.73
			c1.69,0,3.06-1.38,3.06-3.07v-87.48C564.15,371.72,562.77,370.35,561.09,370.35z M456.72,454.76c0,1.69-1.38,3.06-3.06,3.06h-12.9
			c-1.69,0-3.06-1.38-3.06-3.06v-5.62c0-1.69,1.38-3.07,3.06-3.07h12.9c1.69,0,3.06,1.38,3.06,3.07V454.76z M456.72,437.9
			c0,1.69-1.38,3.06-3.06,3.06h-12.9c-1.69,0-3.06-1.38-3.06-3.06v-5.62c0-1.69,1.38-3.06,3.06-3.06h12.9
			c1.69,0,3.06,1.38,3.06,3.06V437.9z M456.72,421.05c0,1.69-1.38,3.06-3.06,3.06h-12.9c-1.69,0-3.06-1.38-3.06-3.06v-5.62
			c0-1.69,1.38-3.07,3.06-3.07h12.9c1.69,0,3.06,1.38,3.06,3.07V421.05z M456.72,404.19c0,1.69-1.38,3.06-3.06,3.06h-12.9
			c-1.69,0-3.06-1.38-3.06-3.06v-5.62c0-1.69,1.38-3.07,3.06-3.07h12.9c1.69,0,3.06,1.38,3.06,3.07V404.19z M480.73,454.76
			c0,1.69-1.38,3.06-3.06,3.06h-12.9c-1.69,0-3.06-1.38-3.06-3.06v-5.62c0-1.69,1.38-3.07,3.06-3.07h12.9
			c1.69,0,3.06,1.38,3.06,3.07V454.76z M480.73,437.9c0,1.69-1.38,3.06-3.06,3.06h-12.9c-1.69,0-3.06-1.38-3.06-3.06v-5.62
			c0-1.69,1.38-3.06,3.06-3.06h12.9c1.69,0,3.06,1.38,3.06,3.06V437.9z M480.73,421.05c0,1.69-1.38,3.06-3.06,3.06h-12.9
			c-1.69,0-3.06-1.38-3.06-3.06v-5.62c0-1.69,1.38-3.07,3.06-3.07h12.9c1.69,0,3.06,1.38,3.06,3.07V421.05z M480.73,404.19
			c0,1.69-1.38,3.06-3.06,3.06h-12.9c-1.69,0-3.06-1.38-3.06-3.06v-5.62c0-1.69,1.38-3.07,3.06-3.07h12.9
			c1.69,0,3.06,1.38,3.06,3.07V404.19z M504.74,454.76c0,1.69-1.38,3.06-3.07,3.06h-12.9c-1.69,0-3.06-1.38-3.06-3.06v-5.62
			c0-1.69,1.38-3.07,3.06-3.07h12.9c1.69,0,3.07,1.38,3.07,3.07V454.76z M504.74,437.9c0,1.69-1.38,3.06-3.07,3.06h-12.9
			c-1.69,0-3.06-1.38-3.06-3.06v-5.62c0-1.69,1.38-3.06,3.06-3.06h12.9c1.69,0,3.07,1.38,3.07,3.06V437.9z M504.74,421.05
			c0,1.69-1.38,3.06-3.07,3.06h-12.9c-1.69,0-3.06-1.38-3.06-3.06v-5.62c0-1.69,1.38-3.07,3.06-3.07h12.9
			c1.69,0,3.07,1.38,3.07,3.07V421.05z M504.74,404.19c0,1.69-1.38,3.06-3.07,3.06h-12.9c-1.69,0-3.06-1.38-3.06-3.06v-5.62
			c0-1.69,1.38-3.07,3.06-3.07h12.9c1.69,0,3.07,1.38,3.07,3.07V404.19z M528.75,454.76c0,1.69-1.38,3.06-3.07,3.06h-12.9
			c-1.69,0-3.06-1.38-3.06-3.06v-22.48c0-1.69,1.38-3.06,3.06-3.06h12.9c1.69,0,3.07,1.38,3.07,3.06V454.76z M528.75,421.05
			c0,1.69-1.38,3.06-3.07,3.06h-12.9c-1.69,0-3.06-1.38-3.06-3.06v-5.62c0-1.69,1.38-3.07,3.06-3.07h12.9
			c1.69,0,3.07,1.38,3.07,3.07V421.05z M528.75,404.19c0,1.69-1.38,3.06-3.07,3.06h-12.9c-1.69,0-3.06-1.38-3.06-3.06v-5.62
			c0-1.69,1.38-3.07,3.06-3.07h12.9c1.69,0,3.07,1.38,3.07,3.07V404.19z M552.76,454.76c0,1.69-1.38,3.06-3.06,3.06h-12.9
			c-1.69,0-3.06-1.38-3.06-3.06v-5.62c0-1.69,1.38-3.07,3.06-3.07h12.9c1.68,0,3.06,1.38,3.06,3.07V454.76z M552.76,437.9
			c0,1.69-1.38,3.06-3.06,3.06h-12.9c-1.69,0-3.06-1.38-3.06-3.06v-5.62c0-1.69,1.38-3.06,3.06-3.06h12.9
			c1.68,0,3.06,1.38,3.06,3.06V437.9z M552.76,421.05c0,1.69-1.38,3.06-3.06,3.06h-12.9c-1.69,0-3.06-1.38-3.06-3.06v-5.62
			c0-1.69,1.38-3.07,3.06-3.07h12.9c1.68,0,3.06,1.38,3.06,3.07V421.05z M552.76,404.19c0,1.69-1.38,3.06-3.06,3.06h-12.9
			c-1.69,0-3.06-1.38-3.06-3.06v-5.62c0-1.69,1.38-3.07,3.06-3.07h12.9c1.68,0,3.06,1.38,3.06,3.07V404.19z M552.76,388.03
			c0,1.69-1.38,3.07-3.06,3.07h-12.9c-1.69,0-3.06-1.38-3.06-3.07v-5.62c0-1.69,1.38-3.07,3.06-3.07h12.9
			c1.68,0,3.06,1.38,3.06,3.07V388.03z"/>
	</g>
	<g class="st0">
		<path class="st2" d="M543.46,340.81h-93.48c-5.48,0-9.96,4.48-9.96,9.96v95.27c0,5.48,4.48,9.96,9.96,9.96h93.48
			c5.48,0,9.96-4.48,9.96-9.96v-95.27C553.42,345.29,548.94,340.81,543.46,340.81z M473.73,443.1c0,1.69-1.38,3.07-3.07,3.07h-18.39
			c-1.69,0-3.07-1.38-3.07-3.07v-18.39c0-1.69,1.38-3.06,3.07-3.06h18.39c1.69,0,3.07,1.38,3.07,3.06V443.1z M473.73,409.77
			c0,1.69-1.38,3.06-3.07,3.06h-18.39c-1.69,0-3.07-1.38-3.07-3.06v-18.39c0-1.69,1.38-3.07,3.07-3.07h18.39
			c1.69,0,3.07,1.38,3.07,3.07V409.77z M508.98,443.1c0,1.69-1.38,3.07-3.07,3.07h-18.39c-1.69,0-3.07-1.38-3.07-3.07v-18.39
			c0-1.69,1.38-3.06,3.07-3.06h18.39c1.69,0,3.07,1.38,3.07,3.06V443.1z M508.98,409.77c0,1.69-1.38,3.06-3.07,3.06h-18.39
			c-1.69,0-3.07-1.38-3.07-3.06v-18.39c0-1.69,1.38-3.07,3.07-3.07h18.39c1.69,0,3.07,1.38,3.07,3.07V409.77z M544.23,443.1
			c0,1.69-1.38,3.07-3.06,3.07h-18.39c-1.69,0-3.07-1.38-3.07-3.07v-51.72c0-1.69,1.38-3.07,3.07-3.07h18.39
			c1.69,0,3.06,1.38,3.06,3.07V443.1z M544.23,373.78c0,1.69-1.38,3.06-3.06,3.06h-88.88c-1.69,0-3.07-1.38-3.07-3.06v-18.73
			c0-1.69,1.38-3.06,3.07-3.06h88.88c1.69,0,3.06,1.38,3.06,3.06V373.78z"/>
		<path class="st2" d="M452.99,365.59v4.01l0.57,1.53c0.51-0.13,0.83-0.44,0.95-0.96v-5.35l-0.38-0.38L452.99,365.59z"/>
		<path class="st2" d="M453.56,357.38l-0.57,1.53v4.01l1.15,1.15l0.38-0.38v-5.35C454.39,357.82,454.07,357.5,453.56,357.38z"/>
		<polygon class="st2" points="457.57,363.49 456.81,364.25 457.57,365.01 462.53,365.01 463.3,364.25 462.53,363.49 		"/>
		<path class="st2" d="M457.57,369.6l-1.53,0.57c0.13,0.51,0.45,0.83,0.95,0.96h6.3l-0.57-1.53H457.57z"/>
		<path class="st2" d="M463.11,357.38l-0.57,1.53v4.01l1.15,1.15l0.38-0.38v-5.35C463.94,357.82,463.62,357.5,463.11,357.38z"/>
		<path class="st2" d="M462.15,358.9l0.57-1.53h-5.71c-0.51,0.13-0.83,0.45-0.96,0.96l1.53,0.57H462.15z"/>
		<polygon class="st2" points="457.57,365.59 456.42,364.44 456.04,364.82 456.04,369.79 457.57,369.22 		"/>
		<path class="st2" d="M471.7,358.9l0.57-1.53h-5.71c-0.51,0.13-0.83,0.45-0.96,0.96l1.53,0.57H471.7z"/>
		<path class="st2" d="M472.66,357.38l-0.57,1.53v4.01l1.15,1.15l0.38-0.38v-5.35C473.49,357.82,473.17,357.5,472.66,357.38z"/>
		<path class="st2" d="M467.12,369.6l-1.53,0.57c0.13,0.51,0.45,0.83,0.96,0.96h5.73l-0.57-1.53H467.12z"/>
		<polygon class="st2" points="466.36,364.25 467.12,365.01 472.08,365.01 472.85,364.25 472.08,363.49 467.12,363.49 		"/>
		<path class="st2" d="M472.08,365.59v4.01l0.57,1.53c0.51-0.13,0.83-0.44,0.96-0.96v-5.35l-0.38-0.38L472.08,365.59z"/>
		<polygon class="st2" points="476.67,358.71 475.14,358.14 475.14,363.68 475.52,364.06 476.67,362.91 		"/>
		<polygon class="st2" points="482.4,364.25 481.63,363.49 476.67,363.49 475.9,364.25 476.67,365.01 481.63,365.01 		"/>
		<path class="st2" d="M481.63,365.59v4.01l0.57,1.53c0.51-0.13,0.83-0.44,0.96-0.96v-5.35l-0.38-0.38L481.63,365.59z"/>
		<path class="st2" d="M482.21,357.38l-0.57,1.53v4.01l1.15,1.15l0.38-0.38v-5.35C483.03,357.82,482.72,357.5,482.21,357.38z"/>
		<polygon class="st2" points="486.22,362.91 486.22,359.29 484.69,358.71 484.69,363.68 485.07,364.06 		"/>
		<polygon class="st2" points="486.22,363.49 485.45,364.25 486.22,365.01 491.18,365.01 491.95,364.25 491.18,363.49 		"/>
		<path class="st2" d="M491.37,358.9l0.57-1.53h-6.28c-0.51,0.13-0.83,0.45-0.96,0.96l1.53,0.57H491.37z"/>
		<path class="st2" d="M491.18,365.59v4.01l0.57,1.53c0.51-0.13,0.83-0.44,0.96-0.96v-5.35l-0.38-0.38L491.18,365.59z"/>
		<path class="st2" d="M486.22,369.6l-1.53,0.57c0.13,0.51,0.45,0.83,0.95,0.96h5.73l-0.57-1.53H486.22z"/>
		<path class="st2" d="M500.92,358.9l0.57-1.53h-6.28c-0.51,0.13-0.83,0.45-0.95,0.96l1.53,0.57H500.92z"/>
		<path class="st2" d="M500.73,365.59v4.01l0.57,1.53c0.51-0.13,0.83-0.44,0.96-0.96v-5.35l-0.38-0.38L500.73,365.59z"/>
		<path class="st2" d="M495.77,369.6l-1.53,0.57c0.13,0.51,0.45,0.83,0.96,0.96h5.73l-0.57-1.53H495.77z"/>
		<polygon class="st2" points="495.77,363.49 495,364.25 495.77,365.01 500.73,365.01 501.49,364.25 500.73,363.49 		"/>
		<polygon class="st2" points="495.77,365.59 494.62,364.44 494.24,364.82 494.24,369.79 495.77,369.22 		"/>
		<polygon class="st2" points="495.77,362.91 495.77,359.29 494.24,358.71 494.24,363.68 494.62,364.06 		"/>
		<path class="st2" d="M504.76,357.38c-0.51,0.13-0.83,0.45-0.96,0.96l1.53,0.57h4.57l0.57-1.53H504.76z"/>
		<path class="st2" d="M510.85,357.38l-0.57,1.53v4.01l1.15,1.15l0.38-0.38v-5.35C511.68,357.82,511.36,357.5,510.85,357.38z"/>
		<path class="st2" d="M510.28,365.59v4.01l0.57,1.53c0.51-0.13,0.83-0.44,0.95-0.96v-5.35l-0.38-0.38L510.28,365.59z"/>
		<polygon class="st2" points="503.79,363.68 504.17,364.06 505.31,362.91 505.31,359.29 503.79,358.71 		"/>
		<polygon class="st2" points="514.86,365.59 513.72,364.44 513.33,364.82 513.33,369.79 514.86,369.22 		"/>
		<path class="st2" d="M519.45,358.9l0.57-1.53h-5.71c-0.51,0.13-0.83,0.45-0.96,0.96l1.53,0.57H519.45z"/>
		<polygon class="st2" points="514.1,364.25 514.86,365.01 519.83,365.01 520.59,364.25 519.83,363.49 514.86,363.49 		"/>
		<polygon class="st2" points="514.86,362.91 514.86,359.29 513.33,358.71 513.33,363.68 513.72,364.06 		"/>
		<path class="st2" d="M520.4,357.38l-0.57,1.53v4.01l1.15,1.15l0.38-0.38v-5.35C521.23,357.82,520.91,357.5,520.4,357.38z"/>
		<path class="st2" d="M519.83,365.59v4.01l0.57,1.53c0.51-0.13,0.83-0.44,0.96-0.96v-5.35l-0.38-0.38L519.83,365.59z"/>
		<path class="st2" d="M514.86,369.6l-1.53,0.57c0.13,0.51,0.45,0.83,0.96,0.96h5.73l-0.57-1.53H514.86z"/>
		<path class="st2" d="M528.99,358.9l0.57-1.53h-5.71c-0.51,0.13-0.83,0.45-0.95,0.96l1.53,0.57H528.99z"/>
		<path class="st2" d="M529.38,365.59v4.01l0.57,1.53c0.51-0.13,0.83-0.44,0.96-0.96v-5.35l-0.38-0.38L529.38,365.59z"/>
		<path class="st2" d="M529.95,357.38l-0.57,1.53v4.01l1.15,1.15l0.38-0.38v-5.35C530.78,357.82,530.46,357.5,529.95,357.38z"/>
		<polygon class="st2" points="523.65,364.25 524.41,365.01 529.38,365.01 530.14,364.25 529.38,363.49 524.41,363.49 		"/>
		<path class="st2" d="M524.41,369.6l-1.53,0.57c0.13,0.51,0.45,0.83,0.95,0.96h5.73l-0.57-1.53H524.41z"/>
		<polygon class="st2" points="524.41,362.91 524.41,359.29 522.88,358.71 522.88,363.68 523.27,364.06 		"/>
		<path class="st2" d="M538.93,365.59v4.01l0.57,1.53c0.51-0.13,0.83-0.44,0.96-0.96v-5.35l-0.38-0.38L538.93,365.59z"/>
		<polygon class="st2" points="533.96,365.59 532.82,364.44 532.43,364.82 532.43,369.79 533.96,369.22 		"/>
		<path class="st2" d="M538.54,358.9l0.57-1.53h-5.71c-0.51,0.13-0.83,0.45-0.96,0.96l1.53,0.57H538.54z"/>
		<polygon class="st2" points="533.96,362.91 533.96,359.29 532.43,358.71 532.43,363.68 532.82,364.06 		"/>
		<path class="st2" d="M533.96,369.6l-1.53,0.57c0.13,0.51,0.45,0.83,0.95,0.96h5.73l-0.57-1.53H533.96z"/>
		<path class="st2" d="M539.5,357.38l-0.57,1.53v4.01l1.15,1.15l0.38-0.38v-5.35C540.33,357.82,540.01,357.5,539.5,357.38z"/>
		<rect x="458.74" y="392.25" class="st2" width="5.46" height="5.6"/>
		<rect x="458.74" y="403.31" class="st2" width="5.46" height="5.6"/>
		<rect x="464.2" y="397.85" class="st2" width="5.6" height="5.46"/>
		<rect x="453.14" y="397.85" class="st2" width="5.6" height="5.46"/>
		<rect x="458.74" y="397.85" class="st2" width="5.46" height="5.46"/>
		
			<rect x="462.58" y="427.27" transform="matrix(0.707 -0.7072 0.7072 0.707 -167.7435 455.0998)" class="st2" width="5.6" height="5.46"/>
		
			<rect x="454.76" y="435.09" transform="matrix(0.7072 -0.707 0.707 0.7072 -175.5712 451.6979)" class="st2" width="5.6" height="5.46"/>
		
			<rect x="462.65" y="435.02" transform="matrix(0.707 -0.7072 0.7072 0.707 -173.2759 457.3862)" class="st2" width="5.46" height="5.6"/>
		
			<rect x="454.83" y="427.2" transform="matrix(0.707 -0.7072 0.7072 0.707 -170.0351 449.5781)" class="st2" width="5.46" height="5.6"/>
		
			<rect x="458.74" y="431.18" transform="matrix(0.7072 -0.707 0.707 0.7072 -171.6603 453.3181)" class="st2" width="5.46" height="5.46"/>
		<rect x="488.39" y="397.85" class="st2" width="16.67" height="5.46"/>
		<rect x="523.63" y="410.35" class="st2" width="16.67" height="5.46"/>
		<rect x="523.63" y="418.68" class="st2" width="16.67" height="5.46"/>
		<rect x="488.39" y="431.13" class="st2" width="16.67" height="5.46"/>
		<path class="st2" d="M496.72,429.93c1.55,0,2.81-1.26,2.81-2.81c0-1.55-1.26-2.81-2.81-2.81c-1.55,0-2.81,1.26-2.81,2.81
			C493.91,428.68,495.17,429.93,496.72,429.93z"/>
		<path class="st2" d="M496.72,437.79c-1.55,0-2.81,1.26-2.81,2.81c0,1.55,1.26,2.81,2.81,2.81c1.55,0,2.81-1.26,2.81-2.81
			C499.53,439.05,498.27,437.79,496.72,437.79z"/>
	</g>
	<g class="st0">
		<path class="st2" d="M464.54,336.09h-24.52c-2.95,0-5.36,2.42-5.36,5.37v24.52c0,2.95,2.41,5.36,5.36,5.36h24.52
			c2.95,0,5.36-2.41,5.36-5.36v-24.52C469.9,338.5,467.49,336.09,464.54,336.09z M459.91,360.59c0.3,0.3,0.3,0.79,0,1.08l-0.99,0.99
			c-0.3,0.3-0.79,0.3-1.08,0l-5.55-5.55l-5.55,5.55c-0.3,0.3-0.79,0.3-1.08,0l-0.99-0.99c-0.3-0.3-0.3-0.79,0-1.08l5.55-5.55
			l-5.55-5.55c-0.3-0.3-0.3-0.79,0-1.08l0.99-0.99c0.3-0.3,0.79-0.3,1.08,0l5.55,5.55l5.55-5.55c0.3-0.3,0.79-0.3,1.09,0l0.99,0.99
			c0.3,0.3,0.3,0.79,0,1.08l-5.55,5.55L459.91,360.59z"/>
		<path class="st2" d="M508.98,336.09h-24.52c-2.95,0-5.36,2.42-5.36,5.37v24.52c0,2.95,2.41,5.36,5.36,5.36h24.52
			c2.95,0,5.36-2.41,5.36-5.36v-24.52C514.34,338.5,511.93,336.09,508.98,336.09z M496.72,346.7c0.92,0,1.66,0.74,1.66,1.66
			c0,0.92-0.74,1.66-1.66,1.66c-0.92,0-1.66-0.74-1.66-1.66C495.06,347.45,495.8,346.7,496.72,346.7z M496.72,360.43
			c-0.92,0-1.66-0.74-1.66-1.66c0-0.92,0.74-1.66,1.66-1.66c0.92,0,1.66,0.74,1.66,1.66C498.38,359.69,497.64,360.43,496.72,360.43z
			 M506.81,354.27c0,0.42-0.34,0.77-0.77,0.77H487.4c-0.42,0-0.77-0.35-0.77-0.77v-1.4c0-0.42,0.35-0.77,0.77-0.77h18.65
			c0.42,0,0.77,0.35,0.77,0.77V354.27z"/>
		<path class="st2" d="M553.42,336.09H528.9c-2.95,0-5.36,2.42-5.36,5.37v24.52c0,2.95,2.41,5.36,5.36,5.36h24.52
			c2.95,0,5.36-2.41,5.36-5.36v-24.52C558.79,338.5,556.37,336.09,553.42,336.09z M537.76,355.7c0.42,0.76,1.02,1.35,1.8,1.78
			c0.77,0.43,1.63,0.65,2.58,0.65c0.81,0,1.54-0.15,2.21-0.45c0.37-0.17,0.76-0.41,1.17-0.73c0.6-0.47,1.45-0.48,1.97,0.07
			c0.52,0.54,0.46,1.47-0.2,2c-0.66,0.52-1.3,0.92-1.91,1.18c-0.96,0.41-2.06,0.61-3.29,0.61c-2.27,0-4.13-0.72-5.58-2.16
			c-1.45-1.44-2.17-3.29-2.17-5.54c0-1.46,0.33-2.75,0.99-3.88c0.66-1.13,1.6-2.04,2.83-2.73c1.23-0.69,2.55-1.03,3.97-1.03
			c1.2,0,2.36,0.25,3.48,0.76c0.65,0.3,1.24,0.66,1.79,1.11c0.66,0.53,0.66,1.48,0.13,1.99c-0.54,0.51-1.43,0.41-2.12-0.08
			c-1.02-0.73-2.12-1.09-3.31-1.09c-1.4,0-2.57,0.48-3.53,1.43c-0.96,0.95-1.43,2.13-1.43,3.53
			C537.12,354.08,537.34,354.95,537.76,355.7z"/>
		<path class="st2" d="M464.54,380.78h-24.52c-2.95,0-5.36,2.41-5.36,5.36v24.52c0,2.95,2.41,5.36,5.36,5.36h24.52
			c2.95,0,5.36-2.41,5.36-5.36v-24.52C469.9,383.2,467.49,380.78,464.54,380.78z M463.21,392.1c0,0.42-0.34,0.77-0.77,0.77h-5.47
			l-5.09,12.88c-0.31,0.79-0.95,1.26-1.71,1.26c-0.75,0-1.38-0.46-1.7-1.23l-2.62-6.27h-1.92c-0.42,0-0.77-0.34-0.77-0.77v-1.53
			c0-0.42,0.34-0.77,0.77-0.77h2.17c1.04,0,2.08,0.69,2.48,1.65l1.56,3.74l4.09-10.34c0.39-0.97,1.43-1.68,2.47-1.68h5.75
			c0.42,0,0.77,0.34,0.77,0.77V392.1z"/>
		<path class="st2" d="M508.98,380.78h-24.52c-2.95,0-5.36,2.41-5.36,5.36v24.52c0,2.95,2.41,5.36,5.36,5.36h24.52
			c2.95,0,5.36-2.41,5.36-5.36v-24.52C514.34,383.2,511.93,380.78,508.98,380.78z M506.81,399.11c0,0.42-0.34,0.77-0.77,0.77H487.4
			c-0.42,0-0.77-0.35-0.77-0.77v-1.4c0-0.42,0.35-0.77,0.77-0.77h18.65c0.42,0,0.77,0.35,0.77,0.77V399.11z"/>
		<path class="st2" d="M464.54,425.48h-24.52c-2.95,0-5.36,2.41-5.36,5.36v24.52c0,2.95,2.41,5.36,5.36,5.36h24.52
			c2.95,0,5.36-2.41,5.36-5.36v-24.52C469.9,427.9,467.49,425.48,464.54,425.48z M446.76,435.41c1.29,0,2.34,1.05,2.34,2.34
			c0,1.29-1.05,2.34-2.34,2.34s-2.34-1.05-2.34-2.34C444.42,436.46,445.47,435.41,446.76,435.41z M445.64,451.21l-0.99-0.99
			c-0.3-0.3-0.3-0.79,0-1.08l13.18-13.18c0.3-0.3,0.79-0.3,1.09,0l0.99,0.99c0.3,0.3,0.3,0.79,0,1.08l-13.18,13.18
			C446.43,451.51,445.94,451.51,445.64,451.21z M457.79,451.76c-1.29,0-2.34-1.05-2.34-2.34c0-1.29,1.05-2.34,2.34-2.34
			c1.29,0,2.34,1.04,2.34,2.34C460.13,450.71,459.08,451.76,457.79,451.76z"/>
		<path class="st2" d="M508.98,425.48h-24.52c-2.95,0-5.36,2.41-5.36,5.36v24.52c0,2.95,2.41,5.36,5.36,5.36h24.52
			c2.95,0,5.36-2.41,5.36-5.36v-24.52C514.34,427.9,511.93,425.48,508.98,425.48z M506.81,446.87c0,0.42-0.34,0.77-0.77,0.77H487.4
			c-0.42,0-0.77-0.35-0.77-0.77v-1.41c0-0.42,0.35-0.77,0.77-0.77h18.65c0.42,0,0.77,0.35,0.77,0.77V446.87z M506.81,440.74
			c0,0.42-0.34,0.77-0.77,0.77H487.4c-0.42,0-0.77-0.34-0.77-0.77v-1.4c0-0.42,0.35-0.77,0.77-0.77h18.65
			c0.42,0,0.77,0.34,0.77,0.77V440.74z"/>
		<path class="st2" d="M553.42,380.78H528.9c-2.95,0-5.36,2.41-5.36,5.36v69.22c0,2.95,2.41,5.36,5.36,5.36h24.52
			c2.95,0,5.36-2.41,5.36-5.36v-69.22C558.79,383.2,556.37,380.78,553.42,380.78z M551.25,421.46c0,0.42-0.34,0.77-0.77,0.77h-7.85
			v7.85c0,0.42-0.35,0.77-0.77,0.77h-1.4c-0.42,0-0.77-0.34-0.77-0.77v-7.85h-7.85c-0.42,0-0.77-0.35-0.77-0.77v-1.4
			c0-0.42,0.34-0.77,0.77-0.77h7.85v-7.86c0-0.42,0.35-0.77,0.77-0.77h1.4c0.42,0,0.77,0.34,0.77,0.77v7.86h7.85
			c0.42,0,0.77,0.34,0.77,0.77V421.46z"/>
	</g>
	<g class="st0">
		<path class="st2" d="M456.96,330.99c-15.17,0-27.5,12.34-27.5,27.5c0,15.16,12.34,27.5,27.5,27.5c15.16,0,27.5-12.34,27.5-27.5
			C484.46,343.33,472.12,330.99,456.96,330.99z M470.24,359.64c0,1.26-1.04,2.3-2.3,2.3h-7.54v7.53c0,1.26-1.03,2.3-2.3,2.3h-2.3
			c-1.26,0-2.3-1.04-2.3-2.3v-7.53h-7.54c-1.26,0-2.3-1.04-2.3-2.3v-2.3c0-1.27,1.04-2.3,2.3-2.3h7.54v-7.54
			c0-1.26,1.04-2.3,2.3-2.3h2.3c1.27,0,2.3,1.04,2.3,2.3v7.54h7.54c1.26,0,2.3,1.03,2.3,2.3V359.64z"/>
		<path class="st2" d="M536.48,385.99c15.16,0,27.5-12.34,27.5-27.5c0-15.16-12.34-27.5-27.5-27.5c-15.16,0-27.5,12.34-27.5,27.5
			C508.98,373.65,521.32,385.99,536.48,385.99z M523.2,357.34c0-1.27,1.04-2.3,2.3-2.3h21.96c1.27,0,2.3,1.03,2.3,2.3v2.3
			c0,1.26-1.04,2.3-2.3,2.3H525.5c-1.26,0-2.3-1.04-2.3-2.3V357.34z"/>
		<path class="st2" d="M456.96,410.82c-15.17,0-27.5,12.34-27.5,27.5c0,15.16,12.34,27.5,27.5,27.5c15.16,0,27.5-12.34,27.5-27.5
			C484.46,423.16,472.12,410.82,456.96,410.82z M456.96,424.91c1.9,0,3.45,1.54,3.45,3.45s-1.54,3.45-3.45,3.45
			c-1.91,0-3.45-1.54-3.45-3.45S455.05,424.91,456.96,424.91z M456.96,451.73c-1.91,0-3.45-1.54-3.45-3.45
			c0-1.9,1.54-3.45,3.45-3.45c1.9,0,3.45,1.54,3.45,3.45C460.4,450.19,458.86,451.73,456.96,451.73z M470.24,439.47
			c0,1.27-1.04,2.3-2.3,2.3h-21.97c-1.26,0-2.3-1.03-2.3-2.3v-2.3c0-1.27,1.04-2.3,2.3-2.3h21.97c1.26,0,2.3,1.04,2.3,2.3V439.47z"
			/>
		<path class="st2" d="M536.48,410.82c-15.16,0-27.5,12.34-27.5,27.5c0,15.16,12.34,27.5,27.5,27.5c15.16,0,27.5-12.34,27.5-27.5
			C563.99,423.16,551.65,410.82,536.48,410.82z M546.69,443.65c0.9,0.89,0.9,2.36,0,3.25l-1.63,1.63c-0.89,0.89-2.36,0.89-3.25,0
			l-5.33-5.33l-5.33,5.33c-0.89,0.89-2.36,0.89-3.25,0l-1.63-1.63c-0.89-0.89-0.89-2.36,0-3.25l5.33-5.33l-5.33-5.33
			c-0.89-0.89-0.89-2.36,0-3.25l1.63-1.63c0.89-0.89,2.36-0.89,3.25,0l5.33,5.33l5.33-5.33c0.89-0.89,2.36-0.89,3.25,0l1.63,1.63
			c0.9,0.89,0.9,2.36,0,3.25l-5.33,5.33L546.69,443.65z"/>
	</g>
	<g class="st0">
		<path class="st2" d="M528.8,338.23h-64.16c-5.18,0-9.42,4.24-9.42,9.42v101.5c0,5.18,4.24,9.42,9.42,9.42h64.16
			c5.18,0,9.42-4.24,9.42-9.42v-101.5C538.23,342.48,533.98,338.23,528.8,338.23z M470.86,451.51c-3.64,0-6.6-2.95-6.6-6.6
			c0-3.64,2.95-6.6,6.6-6.6c3.64,0,6.6,2.95,6.6,6.6C477.45,448.56,474.5,451.51,470.86,451.51z M470.86,432.04
			c-3.64,0-6.6-2.95-6.6-6.6c0-3.64,2.95-6.6,6.6-6.6c3.64,0,6.6,2.95,6.6,6.6C477.45,429.09,474.5,432.04,470.86,432.04z
			 M470.86,412.57c-3.64,0-6.6-2.95-6.6-6.6c0-3.64,2.95-6.59,6.6-6.59c3.64,0,6.6,2.95,6.6,6.59
			C477.45,409.61,474.5,412.57,470.86,412.57z M470.86,393.09c-3.64,0-6.6-2.95-6.6-6.6c0-3.64,2.95-6.6,6.6-6.6
			c3.64,0,6.6,2.95,6.6,6.6C477.45,390.14,474.5,393.09,470.86,393.09z M488.1,451.51c-3.64,0-6.6-2.95-6.6-6.6
			c0-3.64,2.95-6.6,6.6-6.6c3.64,0,6.6,2.95,6.6,6.6C494.7,448.56,491.74,451.51,488.1,451.51z M488.1,432.04
			c-3.64,0-6.6-2.95-6.6-6.6c0-3.64,2.95-6.6,6.6-6.6c3.64,0,6.6,2.95,6.6,6.6C494.7,429.09,491.74,432.04,488.1,432.04z
			 M488.1,412.57c-3.64,0-6.6-2.95-6.6-6.6c0-3.64,2.95-6.59,6.6-6.59c3.64,0,6.6,2.95,6.6,6.59
			C494.7,409.61,491.74,412.57,488.1,412.57z M488.1,393.09c-3.64,0-6.6-2.95-6.6-6.6c0-3.64,2.95-6.6,6.6-6.6
			c3.64,0,6.6,2.95,6.6,6.6C494.7,390.14,491.74,393.09,488.1,393.09z M505.34,451.51c-3.64,0-6.59-2.95-6.59-6.6
			c0-3.64,2.95-6.6,6.59-6.6c3.64,0,6.6,2.95,6.6,6.6C511.94,448.56,508.99,451.51,505.34,451.51z M505.34,432.04
			c-3.64,0-6.59-2.95-6.59-6.6c0-3.64,2.95-6.6,6.59-6.6c3.64,0,6.6,2.95,6.6,6.6C511.94,429.09,508.99,432.04,505.34,432.04z
			 M505.34,412.57c-3.64,0-6.59-2.95-6.59-6.6c0-3.64,2.95-6.59,6.59-6.59c3.64,0,6.6,2.95,6.6,6.59
			C511.94,409.61,508.99,412.57,505.34,412.57z M505.34,393.09c-3.64,0-6.59-2.95-6.59-6.6c0-3.64,2.95-6.6,6.59-6.6
			c3.64,0,6.6,2.95,6.6,6.6C511.94,390.14,508.99,393.09,505.34,393.09z M522.58,451.51c-3.64,0-6.6-2.95-6.6-6.6
			c0-3.64,2.95-6.6,6.6-6.6c3.64,0,6.6,2.95,6.6,6.6C529.18,448.56,526.22,451.51,522.58,451.51z M522.58,432.04
			c-3.64,0-6.6-2.95-6.6-6.6c0-3.64,2.95-6.6,6.6-6.6c3.64,0,6.6,2.95,6.6,6.6C529.18,429.09,526.22,432.04,522.58,432.04z
			 M522.58,412.57c-3.64,0-6.6-2.95-6.6-6.6c0-3.64,2.95-6.59,6.6-6.59c3.64,0,6.6,2.95,6.6,6.59
			C529.18,409.61,526.22,412.57,522.58,412.57z M522.58,393.09c-3.64,0-6.6-2.95-6.6-6.6c0-3.64,2.95-6.6,6.6-6.6
			c3.64,0,6.6,2.95,6.6,6.6C529.18,390.14,526.22,393.09,522.58,393.09z M530.62,363.42c0,3.11-2.54,5.65-5.65,5.65h-56.5
			c-3.11,0-5.65-2.54-5.65-5.65v-10.15c0-3.11,2.54-5.65,5.65-5.65h56.5c3.11,0,5.65,2.54,5.65,5.65V363.42z"/>
	</g>
</g>
</svg>
